<?xml version="1.0" encoding="utf-8"?>
<!-- Generator: Adobe Illustrator 16.0.0, SVG Export Plug-In . SVG Version: 6.00 Build 0)  -->
<!DOCTYPE svg PUBLIC "-//W3C//DTD SVG 1.1//EN" "http://www.w3.org/Graphics/SVG/1.1/DTD/svg11.dtd">
<svg version="1.1" id="Layer_1" xmlns="http://www.w3.org/2000/svg" xmlns:xlink="http://www.w3.org/1999/xlink" x="0px" y="0px"
	 width="342.492px" height="204.212px" viewBox="108.92 47.88 342.492 204.212"
	 enable-background="new 108.92 47.88 342.492 204.212" xml:space="preserve">
<g transform="matrix(1.33333 0 0 -1.33333 0 305.333)">
	<path fill="#231F20" d="M125.88,175.77c-1.33,0.6-2.7,1.13-4.06,1.6c-0.68,0.26-1.38,0.45-2.07,0.65l-1.04,0.3l-1,0.25
		c-1.4,0.38-2.8,0.5-4.1,0.72h-3.2l-1-0.1c-2.9-0.2-5.7-0.5-8.6-0.9c-1.4-0.2-2.9-0.4-4.5-0.3c-0.8,0-1.5,0-2.4,0.2l-0.6,0.1
		l-0.5,0.2h-0.3l-0.2,0.1l-0.6,0.2c-1.4,0.7-2.8,1.6-4,2.9c-1.1,1.3-1.9,3-2.1,4.7s0,3.4,0.8,5.1c0.1,0.2,0.3,0.4,0.4,0.7l0.4,0.4
		c0.1,0.1,0.1,0.1,0.4,0.3c0.2,0.1,0.7,0.2,0.6,0.2h0.3c0.2,0,0.3,0,0.5-0.1c0.3-0.1,0.4-0.1,0.5-0.2c0.2-0.1,0.2-0.1,0.3-0.2
		l0.2-0.1l0.4-0.5c0.5-0.6,0.9-1,1.4-1.5c0.9-0.9,2-1.5,3.2-1.9c1.2-0.4,2.5-0.5,3.8-0.5c2.7,0,5.4,0.8,8,1.8h0.2l1.8,0.4l1.9,0.3
		l1.9,0.1c0.7,0,1.3,0.1,1.9,0.1c0.7-0.1,1.3-0.1,1.9-0.2c0.7-0.1,1.3-0.3,1.9-0.4c0.6-0.2,1.2-0.4,1.8-0.7c0.3-0.1,0.6-0.3,0.9-0.5
		c0.3-0.2,0.6-0.3,0.8-0.5c1.1-0.8,2-1.7,2.7-2.8c0.7-1.1,1.2-2.3,1.6-3.4c0.7-2.4,0.8-4.9,0.5-7.3 M126.61,174.99
		c0,1.2-0.1,2.4-0.3,3.5c-0.2,1.1-0.5,2.3-1,3.3c-0.4,1-1,2.1-1.7,2.9c-0.7,0.9-1.5,1.6-2.5,2.2c-0.2,0.1-0.4,0.2-0.7,0.4l-0.7,0.3
		c-0.5,0.2-1,0.3-1.6,0.4c-0.5,0.1-1.1,0.2-1.6,0.2c-0.6,0.1-1.1,0-1.7,0l-1.7-0.2l-1.7-0.3c0,0-1.2-0.2-1.7-0.3l-1.7-0.5h0.2
		c-2.7-1.2-5.7-2.1-8.9-2.3c-1.6-0.1-3.2,0.1-4.8,0.6c-1.6,0.5-3.1,1.3-4.3,2.4c-0.6,0.5-1.2,1.2-1.6,1.7l-0.3,0.3v-0.1l0.3-0.1
		l0.3-0.1h0.3h-0.1c-0.2-0.1,0.2,0,0.3,0.1l0.2,0.1l-0.1-0.3c-0.4-0.9-0.6-2.2-0.4-3.4c0.1-1.2,0.6-2.3,1.4-3.2
		c0.8-0.9,1.8-1.7,3-2.3l0.4-0.2l0.3-0.1l0.1-0.1c-0.1,0.1,0,0,0,0h0.1l0.5-0.2l0.4-0.1c0.5-0.2,1.2-0.2,1.9-0.3
		c1.4-0.1,2.8,0,4.3,0.1c2.9,0.2,5.9,0.4,8.8,0.3h1.1c0.3-0.1,0.4,0,0.7-0.1l0.6-0.1l2.2-0.3c1.5-0.4,3-0.7,4.4-1.2l1-0.4l1-0.5
		c0.7-0.3,1.4-0.6,2-0.9c1.4-0.7,2.7-1.4,3.9-2.2"/>
	<path fill="#231F20" d="M121.23,178.1c0,0-0.02-0.23-0.13-0.6c-0.1-0.4-0.32-0.9-0.68-1.47c-0.17-0.3-0.4-0.57-0.66-0.86
		c-0.28-0.27-0.56-0.58-0.94-0.82c-0.36-0.27-0.8-0.5-1.27-0.67c-0.22-0.1-0.5-0.15-0.76-0.2c-0.3-0.05-0.6-0.1-0.9-0.07
		c-0.3,0.1-0.6,0.1-0.9,0.1l-0.8,0.3c-0.3,0.1-0.5,0.3-0.7,0.4c-0.2,0.2-0.5,0.3-0.6,0.5c-0.3,0.4-0.6,0.8-0.8,1.1
		c-0.2,0.4-0.3,0.8-0.5,1.1c-0.1,0.3-0.2,0.6-0.2,0.9c-0.1,0.3-0.1,0.5-0.1,0.7v0.6l0.5-0.3c0.1-0.1,0.3-0.2,0.5-0.4
		c0.2-0.1,0.4-0.3,0.6-0.5l0.7-0.5c0.2-0.1,0.4-0.2,0.7-0.4c0.2,0,0.4-0.2,0.7-0.2h0.9c0.1,0.1,0.2,0,0.4,0.1l0.4,0.1
		c0.1,0,0.2,0.1,0.4,0.1l0.8,0.3c0.3,0.1,0.6,0.3,0.8,0.4l1.4,0.6l0.5,0.2 M93.49,177.81c-0.8-0.9-1.4-2-1.9-3.1
		c-0.5-1.1-0.8-2.3-0.9-3.5c-0.1-1.2-0.1-2.4,0.2-3.5c0.2-1.1,0.7-2.2,1.3-3.3c0.1-0.2,0-0.5-0.2-0.6c-1.2-0.8-2.3-1.7-3.3-2.7
		c-1-1-1.9-2.1-2.6-3.2c-0.4-0.6-0.7-1.2-0.9-1.8c-0.1-0.3-0.2-0.7-0.2-1c-0.1-0.3-0.1-0.6-0.1-0.9s0-0.6,0.1-0.9
		c0-0.3,0.2-0.6,0.3-0.9c0.1-0.2,0.3-0.5,0.5-0.8c0.1-0.2,0.4-0.5,0.6-0.7c0.5-0.6,1.1-1.3,1.7-1.8c0.3-0.3,0.6-0.5,0.9-0.8l0.4-0.3
		c0.1-0.1,0.2-0.1,0.3-0.2c0.5-0.2,0.8-0.8,0.6-1.4c-0.1-0.1-0.2-0.3-0.4-0.4c-0.2-0.1-0.4-0.3-0.5-0.4l-0.5-0.5
		c-0.3-0.3-0.6-0.7-0.8-1.1c-0.5-0.7-0.8-1.5-0.9-2.4c-0.1-0.8,0.1-1.6,0.4-2.3c0.1-0.4,0.4-0.7,0.6-1.1c0.3-0.4,0.6-0.7,0.9-1
		c0.3-0.3,0.4-0.8,0.3-1.2v-0.1c-0.1-0.3-0.2-0.7-0.2-1c-0.1-0.4-0.1-0.8-0.1-1.1c-0.1-0.7,0-1.5,0.1-2.2c0.2-1.4,0.7-2.8,1.5-3.9
		c0.2-0.3,0.4-0.5,0.7-0.8c0.3-0.2,0.5-0.4,0.8-0.6l0.9-0.6l0.9-0.5l1-0.4l1.1-0.3l1.1-0.2l1.1-0.1c0.3-0.1,0.6-0.2,0.8-0.4
		c1.2-1.2,2.4-2.3,3.6-3.4c1.3-1.1,2.5-2.2,3.8-3.2c2.6-2.1,5.3-4,8.1-5.6c1.4-0.8,2.9-1.5,4.3-2.099c1.5-0.601,3-1,4.5-1.1
		c1.5-0.1,2.9,0.1,4.1,0.699c1.2,0.6,2.2,1.7,2.9,3c0.3,0.5,0.8,0.7,1.3,0.7c1.4,0,2.9,0.1,4.3,0.3c1.5,0.201,2.9,0.5,4.4,0.901
		c2.8,0.799,5.5,2,8,3.5c1.2,0.8,2.4,1.7,3.5,2.6c0.6,0.5,1,1,1.6,1.6c0.4,0.6,1,1.1,1.4,1.7c0.9,1.1,1.7,2.4,2.4,3.7
		c0.4,0.6,0.7,1.3,1,2l0.9,2.1c0.2,0.7,0.5,1.4,0.7,2.1l0.3,1.1l0.2,0.6c0,0.1,0,0.3,0.1,0.5c0.2,1.5,0.3,3,0.3,4.5
		c-0.1,3-0.5,6-1.7,8.7c-1.2,2.8-3.1,5.2-5.6,6.9c-1.2,0.9-2.6,1.5-4,2.1c-1.4,0.6-2.9,0.9-4.4,1.2c1.5-0.2,3-0.4,4.5-0.8
		c1.5-0.4,2.9-1,4.2-1.9c2.7-1.6,4.8-4.1,6.2-6.9c1.4-2.8,2.1-6,2.2-9.1c0.1-1.6,0.1-3.2-0.1-4.8c0-0.2-0.1-0.4-0.1-0.6l-0.2-0.6
		l-0.3-1.1c-0.2-0.7-0.5-1.5-0.7-2.2l-0.8-2.2c-0.4-0.7-0.7-1.4-1.1-2.1c-0.8-1.4-1.6-2.8-2.5-4.1c-0.5-0.7-1-1.3-1.5-1.9
		c-0.6-0.5-1.1-1.2-1.7-1.7c-1.2-1.1-2.5-2.1-3.8-3c-2.7-1.7-5.7-3.1-8.7-4c-1.6-0.4-3.1-0.8-4.7-1.1c-1.6-0.2-3.1-0.4-4.9-0.4
		l1.3,0.7c-0.9-1.6-2.3-3.2-4.1-4.1c-1.8-1-3.8-1.2-5.7-1.1c-1.9,0.2-3.6,0.7-5.3,1.3c-1.7,0.6-3.2,1.4-4.7,2.301
		c-3,1.8-5.8,3.8-8.5,5.9c-1.4,1.1-2.7,2.2-3.9,3.3c-1.3,1.2-2.5,2.3-3.7,3.6l0.9-0.4l-1.3,0.2l-1.3,0.3c-0.5,0.2-0.9,0.3-1.3,0.4
		c-0.4,0.2-0.9,0.3-1.3,0.5l-1.2,0.6c-0.4,0.3-0.8,0.5-1.1,0.8c-0.4,0.3-0.7,0.6-1.1,0.9c-0.3,0.3-0.6,0.7-0.9,1.1
		c-1.1,1.5-1.7,3.3-1.9,5.1c-0.1,0.9-0.1,1.8-0.1,2.7c0.1,0.4,0.1,0.9,0.2,1.3c0.1,0.5,0.1,0.9,0.3,1.4l0.3-1.2
		c-0.4,0.4-0.8,0.8-1.1,1.3c-0.4,0.5-0.7,1-0.9,1.5c-0.5,1.1-0.7,2.4-0.6,3.6c0.1,1.2,0.6,2.4,1.2,3.3c0.3,0.5,0.6,0.9,1,1.4
		l0.6,0.6c0.2,0.2,0.4,0.4,0.7,0.6l0.2-1.8c-0.3,0.1-0.6,0.3-0.8,0.4c-0.2,0.2-0.4,0.3-0.6,0.5c-0.3,0.3-0.7,0.6-1,1
		c-0.6,0.7-1.2,1.4-1.7,2.1v-0.1c-0.3,0.3-0.5,0.6-0.8,1c-0.3,0.4-0.5,0.7-0.7,1.1c-0.1,0.4-0.3,0.8-0.4,1.2
		c-0.1,0.5-0.1,0.9-0.1,1.3s0,0.8,0.1,1.2c0.1,0.4,0.2,0.8,0.4,1.2c0.3,0.8,0.7,1.5,1.1,2.1c0.8,1.3,1.9,2.4,3,3.4
		c1.1,1,2.3,1.9,3.6,2.7l-0.2-0.6c-0.5,1.1-0.9,2.3-1.1,3.6c-0.2,1.2-0.2,2.5,0,3.8c0.2,1.2,0.6,2.4,1.1,3.5c0.6,1.1,1.3,2.1,2.1,3"
		/>
	<path fill="#231F20" d="M98.7,168.5c0,0,0.45-0.4,1.24-1.05c0.8-0.65,1.95-1.54,3.36-2.5c1.42-0.92,3.13-1.92,5.02-2.5
		c0.94-0.3,1.92-0.5,2.9-0.5c0.96-0.02,1.92,0.13,2.84,0.47c0.46,0.16,0.9,0.37,1.34,0.6l0.67,0.42l0.64,0.44
		c0.9,0.63,1.7,1.3,2.5,2c0.8,0.7,1.5,1.4,2.2,2.12c0.7,0.7,1.2,1.4,1.8,2.08c0.5,0.7,1,1.33,1.3,1.93c0.4,0.6,0.6,1.2,0.9,1.6
		l0.7,1.5v-0.4c0-0.3,0-0.7-0.1-1.2s-0.1-1.1-0.4-1.8l-0.3-1.1l-0.5-1.2l-0.6-1.3l-0.8-1.3c-0.6-0.8-1.2-1.7-2-2.6
		c-0.8-0.8-1.6-1.7-2.6-2.4c-0.2-0.2-0.5-0.4-0.7-0.5l-0.8-0.5l-1.8-0.9c-1.3-0.4-2.6-0.6-4-0.5c-1.3,0.1-2.6,0.5-3.7,0.9
		c-1.1,0.5-2,1.1-2.9,1.7c-0.8,0.6-1.6,1.3-2.2,2c-1.2,1.3-2.1,2.6-2.7,3.4c-0.5,0.9-0.8,1.5-0.8,1.5 M94.21,160.71l0.5-0.4l1.3-0.8
		c0.5-0.3,1-0.7,1.6-1.1l0.9-0.5l0.9-0.6c0.3-0.2,0.6-0.3,0.9-0.5c0.3-0.1,0.6-0.3,0.9-0.4c0.3-0.1,0.6-0.2,0.9-0.4l0.9-0.3
		c0.3-0.1,0.6-0.2,0.8-0.3l0.6-0.3c0.4-0.1,0.6-0.2,0.6-0.2s-0.2-0.2-0.5-0.4c-0.1-0.1-0.4-0.2-0.6-0.3s-0.6-0.2-0.9-0.3
		c-0.4-0.1-0.7-0.1-1.1-0.1c-0.4,0-0.8,0-1.3,0.1c-0.4,0.1-0.9,0.2-1.3,0.4s-0.8,0.3-1.2,0.6c-0.4,0.3-0.8,0.5-1.1,0.8
		c-0.4,0.3-0.7,0.7-0.9,1c-0.5,0.7-0.9,1.3-1.1,2c-0.2,0.6-0.3,1.2-0.4,1.6v0.6 M110.31,154.51c1-0.2,1.9-0.2,2.9,0
		c0.9,0.2,1.8,0.6,2.5,1.2c1.6,1,2.8,2.5,3.8,4c0.3,0.4,0.5,0.8,0.7,1.2l0.3,0.6l0.1,0.2l0.1,0.2l0.1,0.1l0.1,0.1l0.2,0.2
		c0.5,0.2,0.7,0.1,0.9,0.1c0.8-0.2,1.1-0.5,1.6-0.9c0.4-0.3,0.8-0.7,1.1-1.1c1.4-1.5,2.4-3.3,3.1-5.2c0.7-1.9,1.2-3.9,1.3-5.9
		l0.1-0.7l0.1-0.5v0.2c-0.1,0-0.1,0.1-0.2,0.2l-0.2,0.2c-0.6,0.4-1.2,0.1-1.3,0l-0.1-0.1c0,0,0,0.1,0.1,0.2l0.3,0.6
		c0.5,0.9,1,1.8,1.5,2.6c1.1,1.7,2.5,3.3,4.1,4.6c1.6,1.4,3.5,2.4,5.4,3.1l-0.2-0.1c1.5,0.7,2.8,1.3,4.3,1.8
		c1.4,0.5,2.9,0.9,4.4,1.2c3,0.7,6.1,0.9,9.1,0.5c3.1-0.3,6.2-1.3,8.8-3c1.3-0.9,2.6-2,3.6-3.2c1-1.3,1.9-2.6,2.4-4.1
		c1.2-2.9,1.5-6.1,1.4-9.1c-0.1-3.1-0.7-6-1.5-8.8c-0.4-1.4-0.9-2.8-1.4-4.2c-0.5-1.4-1.1-2.8-1.7-4.1c-0.6-1.3-1.3-2.7-1.9-4
		l-2.1-3.9c0.5,1.4,1.1,2.7,1.6,4.1c0.5,1.3,1,2.7,1.5,4.1c0.9,2.7,1.7,5.5,2.3,8.3c0.6,2.8,1,5.6,1,8.4c0,2.8-0.5,5.6-1.6,8
		c-1.1,2.5-2.8,4.5-5.1,5.9c-2.3,1.4-4.9,2.2-7.6,2.5c-2.7,0.3-5.5,0-8.2-0.5c-1.4-0.3-2.8-0.7-4.1-1.1s-2.7-1-3.8-1.5l-0.2-0.1
		c-1.7-0.6-3.2-1.4-4.6-2.5c-1.4-1.1-2.6-2.4-3.6-3.9c-0.5-0.7-1-1.5-1.4-2.3l-0.4-0.7c-0.1-0.2-0.1-0.3-0.3-0.5l-0.3-0.3
		c-0.1-0.1-0.7-0.4-1.4,0l-0.2,0.2l-0.2,0.2l-0.1,0.3v1.9c-0.1,1.8-0.4,3.6-1,5.3c-0.5,1.8-1.3,3.5-2.4,4.9c-0.2,0.4-0.5,0.7-0.8,1
		c-0.3,0.3-0.7,0.6-0.9,0.7h0.1l0.1,0.1c0,0,0.1,0,0.1,0.1h-0.2c0,0.1-0.1-0.1,0.1,0.1l-0.1-0.1l-0.4-0.6c-0.3-0.4-0.5-0.8-0.8-1.2
		c-1.2-1.5-2.6-3-4.4-3.9c-0.9-0.4-1.9-0.8-2.9-0.9c-1-0.1-2,0-2.9,0.3 M96.01,148.41l0.9-0.2l2.3-0.6l1.5-0.3
		c0.5-0.2,1.1-0.3,1.6-0.4c0.6-0.1,1.1-0.1,1.7-0.2c0.6,0,1.2-0.1,1.7,0h1.6c0.2,0.1,0.5,0.1,0.8,0.1l0.8,0.2c0.6,0.1,1,0.3,1.5,0.4
		c0.5,0.1,1,0.3,1.4,0.5s0.9,0.3,1.2,0.5c0.4,0.2,0.7,0.3,0.9,0.4c0.6,0.3,0.9,0.4,0.9,0.4s-0.1-0.3-0.4-0.8l-0.6-0.9
		c-0.3-0.3-0.6-0.7-1-1c-0.4-0.3-0.8-0.8-1.4-1.1c-0.5-0.3-1.1-0.7-1.7-0.9c-0.7-0.2-1.3-0.5-2-0.6c-0.4,0-0.7-0.1-1.1-0.1h-1.1
		c-0.7-0.1-1.4,0.1-2.1,0.1c-0.7,0.2-1.4,0.3-2,0.5c-1.3,0.5-2.3,1.1-3.1,1.7c-0.9,0.6-1.5,1.2-1.9,1.6c-0.4,0.5-0.5,0.8-0.5,0.8"/>
	<path fill="#231F20" d="M91.57,135c0,0,0.13,0.05,0.44,0.06c0.3,0,0.8,0.02,1.3,0c1.1,0,2.6-0.02,4.3,0c0.9,0.03,1.9,0.06,2.9,0.13
		c1,0,2.1,0.1,3.1,0.3c2.1,0.3,4.4,0.8,6.4,1.6c1.1,0.3,2.1,0.8,3.1,1.3c0.5,0.2,1,0.5,1.4,0.8c0.5,0.3,0.9,0.5,1.3,0.9
		c0.9,0.6,1.7,1.3,2.4,1.9c0.7,0.6,1.4,1.3,1.9,2c0.3,0.3,0.6,0.6,0.8,1c0.3,0.3,0.5,0.6,0.7,0.9c0.4,0.6,0.9,1,1.1,1.5
		c0.6,0.9,1,1.4,1,1.4l-0.4-1.6c-0.1-0.6-0.4-1.2-0.6-1.9c-0.2-0.7-0.6-1.5-1-2.3l-0.7-1.3c-0.2-0.4-0.6-0.8-0.9-1.3
		c-0.7-0.9-1.4-1.8-2.3-2.5c-0.8-0.8-1.8-1.6-2.9-2.2c-1.1-0.7-2.2-1.3-3.4-1.7c-1.2-0.5-2.4-0.8-3.6-1c-1.2-0.3-2.4-0.4-3.6-0.4
		c-2.3-0.1-4.5,0.1-6.3,0.4c-1.8,0.3-3.3,0.8-4.3,1.1l-1.1,0.4c-0.1,0-0.2,0.1-0.3,0.1H92 M105.3,125.09c0.76-0.2,1.54-0.4,2.32-0.4
		c0.8-0.1,1.54-0.1,2.3-0.1c0.4-0.1,0.74,0,1.1,0c0.4,0,0.8,0.1,1.13,0.1c0.4,0,0.7,0.1,1.1,0.2l1,0.3c0.36,0.1,0.7,0.2,1,0.4
		c0.3,0.2,0.6,0.3,0.87,0.5l0.8,0.7c0.3,0.2,0.5,0.5,0.7,0.7c0.2,0.3,0.5,0.5,0.67,0.9l0.5,0.9c0.2,0.3,0.3,0.7,0.4,1l0.4,1
		c0.3,0.6,0.9,1,1.6,0.8l1.2-0.2c0.4-0.1,0.7-0.1,1.1-0.1c0.8-0.1,1.5-0.1,2.3,0c0.7,0.1,1.4,0.2,2,0.5c0.3,0.1,0.5,0.3,0.8,0.4
		c0.2,0.2,0.5,0.4,0.6,0.6c0.1,0.1,0.2,0.2,0.2,0.4c0.1,0.1,0.2,0.2,0.2,0.4c0.2,0.2,0.2,0.6,0.3,0.9c0.1,0.4,0.1,0.7,0.1,1.1v1.2
		c-0.1,0.7-0.2,1.5-0.4,2.3l-0.3,1.2l-0.4,1.2l-0.1,0.1c-0.1,0.6,0.2,1.2,0.8,1.4c0.6,0.2,1.2-0.1,1.4-0.7l0.3-0.7
		c0.1-0.2,0.2-0.4,0.4-0.7c0.3-0.4,0.5-0.8,0.8-1.2c0.6-0.8,1.3-1.4,2.1-1.7c0.2-0.1,0.4-0.1,0.6-0.1h0.7l0.7,0.2l0.6,0.3
		c0.4,0.3,0.8,0.6,1.2,1s0.7,0.8,1.1,1.2c-0.2-0.5-0.4-1-0.7-1.5c-0.3-0.4-0.6-0.9-1-1.3c-0.4-0.4-0.9-0.8-1.4-1
		c-0.3-0.1-0.6-0.2-1-0.3c-0.3-0.1-0.6-0.1-0.9,0c-0.3,0-0.7,0.1-0.9,0.2c-0.3,0.1-0.6,0.2-0.9,0.4c-0.5,0.3-1,0.7-1.4,1.1
		c-0.4,0.4-0.8,0.8-1.2,1.3l-0.5,0.7c-0.1,0.2-0.3,0.5-0.4,0.8l2.1,0.9c0.3-0.8,0.7-1.6,1-2.5s0.5-1.8,0.6-2.7
		c0.1-0.5,0.2-1,0.1-1.5c0.1-0.5,0-1-0.1-1.5s-0.2-1.1-0.4-1.6c-0.1-0.3-0.2-0.5-0.4-0.8c-0.1-0.2-0.3-0.5-0.4-0.7
		c-0.4-0.5-0.8-0.9-1.2-1.2c-0.5-0.3-0.9-0.6-1.4-0.8c-1-0.4-2-0.6-2.9-0.7c-1-0.1-1.9-0.1-2.8,0c-0.5,0-1,0.1-1.4,0.2
		c-0.5,0-0.9,0.1-1.4,0.3l1.6,0.8l-0.6-1.2l-0.6-1.2l-0.8-1.1c-0.2-0.3-0.6-0.6-0.9-1c-0.3-0.3-0.6-0.6-1-0.9l-1.1-0.7
		c-0.4-0.3-0.8-0.4-1.2-0.6c-0.4-0.2-0.9-0.3-1.3-0.4c-0.4-0.2-0.9-0.3-1.3-0.3c-0.4-0.1-0.8-0.1-1.3-0.1H111
		c-0.4,0-0.86,0-1.26,0.1c-0.4,0-0.8,0.1-1.2,0.2c-0.4,0.1-0.8,0.2-1.2,0.4c-0.7,0.3-1.5,0.6-2.2,1 M121.44,121.79l0.9,0.1
		c0.56,0.1,1.3,0.2,2.2,0.4c0.4,0,0.9,0.2,1.4,0.4c0.5,0.2,1,0.3,1.4,0.6c0.3,0.1,0.5,0.2,0.7,0.3c0.2,0.2,0.5,0.3,0.7,0.4
		c0.3,0.1,0.5,0.3,0.7,0.5c0.2,0.2,0.4,0.4,0.6,0.5c0.34,0.4,0.8,0.8,1.1,1.2c0.3,0.5,0.74,0.8,1,1.3l0.9,1.3
		c0.26,0.5,0.5,0.9,0.76,1.3c0.3,0.4,0.5,0.7,0.7,1.1l0.5,0.8c0.3,0.5,0.5,0.8,0.5,0.8v-1c0-0.4,0-0.9-0.1-1.4
		c-0.1-0.5-0.2-1-0.37-1.6c-0.1-0.5-0.4-1.1-0.6-1.7c-0.1-0.3-0.26-0.6-0.45-0.8l-0.6-0.9c-0.36-0.6-0.9-1.1-1.4-1.6
		c-0.57-0.5-1.1-0.9-1.76-1.3c-0.3-0.2-0.6-0.4-0.94-0.5c-0.3-0.2-0.65-0.3-1-0.4c-0.63-0.2-1.3-0.3-1.9-0.3c-0.6,0-1.14-0.1-1.65,0
		c-0.5,0-0.9,0.2-1.3,0.3c-0.4,0.1-0.7,0.3-1,0.4c-0.5,0.2-0.8,0.5-0.8,0.5"/>
	<path fill="#231F20" d="M108,121.04c0,0,1.36-0.84,3.9-2c2.55-1.12,6.3-2.6,10.93-3.25c2.3-0.4,4.85-0.4,7.42,0
		c2.58,0.4,5.15,1.4,7.5,3c2.34,1.5,4.35,3.7,6.06,6.2c0.5,0.6,0.9,1.2,1.3,1.9l1.3,2c0.8,1.3,1.6,2.7,2.3,4.1
		c0.8,1.3,1.4,2.7,1.9,4.1c0.4,1.3,0.6,2.7,0.4,3.9c-0.2,1.2-0.9,2.3-1.8,3.3c-0.4,0.5-1,0.9-1.5,1.4l-0.2,0.1l-0.2,0.1l-0.3,0.2
		c-0.2,0.1-0.5,0.3-0.8,0.4c-1.2,0.5-2.6,0.7-3.9,0.8c-0.6,0-1.2-0.1-1.5-0.2l-0.2-0.1v-0.3c0.1-0.2,0.2-0.5,0.3-0.7l0.5-0.9
		c0.4-0.6,0.7-1.1,1-1.7l0.9-1.8c0.3-0.6,0.5-1.2,0.7-1.8c0.2-0.6,0.5-1.2,0.7-1.7l0.2-0.5l0.1-0.5c0.1-0.3,0.1-0.6,0.1-0.9
		c0.1-1.2-0.1-2.4-0.5-3.3c-0.4-1-0.9-1.8-1.6-2.5c-0.6-0.6-1.3-1.1-1.9-1.5c-1.2-0.7-2.3-1-3-1.3l-1.1-0.2l1.1,0.4
		c0.7,0.3,1.7,0.8,2.8,1.6c1.1,0.8,2.3,2.1,2.7,3.8c0.3,0.8,0.4,1.8,0.2,2.8l-0.1,0.7l-0.1,0.3l-0.1,0.4l-0.8,1.6
		c-0.2,0.5-0.5,1.1-0.8,1.6l-0.9,1.6c-0.3,0.5-0.7,1.1-1,1.6l-0.6,0.8c-0.2,0.3-0.4,0.7-0.5,1.2c-0.1,0.4-0.2,1.1,0.1,1.7
		c0.3,0.6,0.8,1.1,1.3,1.3c1,0.4,1.8,0.5,2.6,0.5c1.7,0.1,3.2-0.2,4.8-0.7c0.4-0.1,0.8-0.3,1.2-0.5l0.7-0.3l0.2-0.2
		c0.2-0.1,0.2-0.2,0.3-0.2c0.7-0.5,1.3-1,1.9-1.6c1.2-1.3,2.3-2.9,2.6-4.7c0.4-1.9,0.1-3.8-0.4-5.5s-1.2-3.2-1.9-4.7
		c-0.8-1.5-1.6-2.9-2.5-4.3l-1.2-2.1c-0.4-0.7-0.9-1.4-1.3-2.1c-1.9-2.7-4.3-5.1-7-6.7c-2.7-1.7-5.7-2.7-8.6-3
		c-1.5-0.2-2.9-0.2-4.2-0.1c-1.4,0.1-2.6,0.3-3.8,0.601c-4.9,1-8.5,3-10.9,4.4c-1.2,0.7-2.1,1.3-2.7,1.8l-0.9,0.7 M168,155
		c1.1,0.8,1.9,1.95,2.7,3.1c0.7,1.15,1.3,2.4,1.8,3.7c0.9,2.5,1.6,5.2,1.93,7.9c0.2,1.3,0.3,2.7,0.4,4.05c0.1,1.34,0.2,2.7,0.2,4.1
		v4.1c0,1.34-0.1,2.7-0.2,4.1v0.1c0.1,0.9,0.2,1.6,0.6,2.4c0.3,0.8,1,1.6,2,2.1c1,0.4,2,0.3,2.8,0.1c0.4-0.1,0.8-0.2,1.1-0.4
		l0.2-0.1l0.3-0.1c0.2-0.1,0.4-0.2,0.5-0.3c1.4-0.8,2.5-2,3.1-3.5c0.6-1.5,0.8-3.3,0-4.9c-0.2-0.4-0.4-0.8-0.7-1.12
		c-0.23-0.34-0.7-0.7-0.9-0.85c-0.2-0.15-0.4-0.34-0.5-0.5l-0.1-0.1c0,0,0,0.1,0.07,0.2c0,0.1,0,0.3-0.1,0.5
		c-0.1,0.3-0.3,0.5-0.4,0.6l-0.2,0.1l0.2-0.05l0.3-0.06h0.15l0.5-0.1c0.7-0.14,1.45-0.3,2.16-0.6c0.7-0.3,1.4-0.7,2-1.25
		c0.6-0.53,1.2-1.2,1.5-2c0.7-1.5,0.7-3.1,0.5-4.5l-0.2-1.05l-0.3-1c-0.3-0.7-0.5-1.3-0.8-1.9c-0.6-1.2-1.2-2.38-1.9-3.5
		c-1.4-2.2-2.9-4.3-4.4-6.32c-1.6-2.03-3.2-4.02-4.8-6c-1.7-1.92-3.4-3.83-5.2-5.7c2.9,4.2,5.8,8.4,8.5,12.7
		c1.4,2.17,2.7,4.3,3.9,6.5c0.6,1.1,1.1,2.27,1.6,3.4l0.6,1.6c0,0.22,0.1,0.62,0.2,0.8c0,0.3,0.1,0.6,0.1,0.87
		c0.2,1.1,0.1,2.18-0.3,2.97c-0.4,0.8-1.1,1.3-2.1,1.7c-0.4,0.2-1,0.3-1.5,0.4h-0.4l-0.3,0.1l-0.2,0.1c-0.2,0-0.4,0-0.7,0.2
		c-0.2,0-0.4,0.1-0.6,0.3s-0.5,0.5-0.7,0.9c-0.1,0.4-0.1,0.7,0,1c0.1,0.2,0.1,0.4,0.2,0.6c0.2,0.3,0.3,0.5,0.5,0.6
		c0.3,0.4,0.6,0.6,0.9,0.8c0.3,0.2,0.4,0.3,0.5,0.5c0.1,0.1,0.2,0.3,0.3,0.5c0.3,0.7,0.3,1.6-0.1,2.5c-0.3,0.8-1,1.6-1.8,2.1
		l-0.3,0.2l-0.2,0.1l-0.2,0.1c-0.2,0.1-0.5,0.2-0.7,0.2c-0.4,0.1-0.7,0.1-0.9,0c-0.2,0-0.4-0.2-0.6-0.6c-0.2-0.4-0.3-0.9-0.4-1.3
		v-6.2c0-0.7-0.1-1.4-0.1-2.1c-0.1-1.4-0.2-2.8-0.4-4.2s-0.5-2.8-0.8-4.2c-0.3-1.4-0.7-2.7-1.1-4.1c-0.5-1.3-1-2.7-1.7-3.9
		c-0.7-1.3-1.4-2.5-2.3-3.6c-0.5-0.6-0.9-1.1-1.5-1.5c-0.5-0.5-1.1-0.9-1.7-1.2 M189.61,177.59c0,0,0,0.5,0.1,1.5
		c0.1,1,0.2,2.4,0.7,4c0.2,0.8,0.5,1.7,1,2.7c0.2,0.5,0.5,1,1,1.5c0.4,0.4,1.1,1,2,1.2c2,0.3,3.3-1.4,3.9-1.9c0.8-1,1.5-2.1,1.9-3.3
		c0.5-1.2,0.7-2.5,0.6-3.8c0-1.3-0.3-2.5-0.7-3.5c-0.4-1.1-0.9-2.1-1.5-2.9c-0.3-0.5-0.6-0.9-0.9-1.2c-0.3-0.4-0.5-0.7-0.7-1
		c-0.9-1.3-1.5-2.5-1.7-3.4c-0.1-0.5-0.1-0.8-0.1-1.1c0.1-0.3,0.2-0.4,0.2-0.4s-0.1,0-0.3,0.3c-0.1,0.2-0.3,0.6-0.3,1.1
		c-0.1,1,0.1,2.6,0.8,4.2l0.6,1.2l0.6,1.2c0.4,0.8,0.7,1.6,0.9,2.5c0.4,1.8,0.5,3.7-0.2,5.5c-0.3,0.9-0.8,1.6-1.3,2.4l-0.5,0.6
		c-0.1,0.1-0.2,0.3-0.3,0.4c-0.3,0.2-0.4,0.2-0.5,0.2c-0.2,0.1-1-0.5-1.4-1.2c-0.5-0.7-0.9-1.5-1.3-2.2c-0.7-1.4-1.3-2.7-1.7-3.6
		l-0.6-1.4"/>
	<path fill="#231F20" d="M171.67,140.82c0,0,0.98,0.66,2.63,1.88c1.64,1.22,3.96,3,6.62,5.24c1.33,1.13,2.73,2.4,4.17,3.75
		c1.4,1.3,2.8,2.8,4.2,4.4c1.4,1.6,2.7,3.3,4,5.2c1.2,1.8,2.3,3.8,3.1,5.9c0.4,1,0.7,2,1,3.1v0.4l0.1,0.5l0.3,0.9
		c0.2,0.6,0.4,1.2,0.8,1.8c0.3,0.6,0.7,1.2,1.6,1.8c0.4,0.2,1,0.4,1.5,0.4c0.6,0,1-0.2,1.4-0.4c0.7-0.5,1.2-1,1.6-1.5
		c0.4-0.5,0.7-1,1-1.6c0.6-1.2,0.899-2.6,0.8-3.8s-0.4-2.3-0.8-3.3c-0.8-2.1-1.8-3.7-2.9-5.2c-1.1-1.5-2.2-2.7-3.2-3.8
		c-1-1.1-2-1.9-2.8-2.6c-0.8-0.6-1.6-1.1-2.1-1.3c-0.3-0.1-0.5-0.2-0.6-0.2l-0.2,0.1c0,0,0.1-0.1,0.2-0.1s0.3,0,0.6,0.2
		c0.4,0.3,1,0.8,1.7,1.6c1.4,1.4,3.2,3.7,4.9,6.7c0.8,1.5,1.6,3.1,2.1,4.9c0.5,1.8,0.6,3.8-0.2,5.2c-0.5,0.8-1.3,1.7-1.8,1.9
		c-0.3,0.1-0.1,0-0.2,0c-0.1,0-0.4-0.4-0.6-0.8c-0.2-0.4-0.4-0.8-0.5-1.3l-0.2-0.8l-0.2-0.8c-0.3-1.2-0.7-2.4-1.1-3.6
		c-0.9-2.3-2.2-4.5-3.5-6.4c-1.4-2-2.9-3.8-4.5-5.4c-1.6-1.6-3.2-3.1-4.8-4.4c-1.6-1.3-3.1-2.4-4.6-3.4c-2.9-2-5.5-3.4-7.4-4.4
		c-1.9-1-2.9-1.4-2.9-1.4"/>
	<path fill="#231F20" d="M190.6,153.57c0,0,0.15-0.03,0.43-0.12c0.28-0.1,0.7-0.24,1.2-0.52c0.47-0.3,1.08-0.66,1.62-1.3
		c0.3-0.3,0.5-0.72,0.75-1.15c0.18-0.46,0.38-0.95,0.4-1.5c0.1-0.57,0.02-1.12-0.05-1.7c-0.1-0.6-0.34-1.13-0.54-1.7
		c-0.2-0.52-0.5-1.06-0.8-1.6l-1.1-1.46c-0.4-0.48-0.8-0.9-1.3-1.35c-0.4-0.47-0.9-0.87-1.4-1.26l-1.5-1.2l-1.5-1
		c-2-1.4-4.1-2.7-6-3.9c-0.9-0.6-2-1.1-3-1.6c-1-0.5-1.8-0.9-2.7-1.3l-1.2-0.5l-1.1-0.4l-1.9-0.6c-0.5-0.2-0.9-0.2-1.2-0.3h-0.4
		l0.4,0.3l1.1,0.7c0.5,0.3,1,0.7,1.6,1.1l1,0.6c0.3,0.3,0.7,0.5,1.1,0.8l2.4,1.7c0.9,0.6,1.8,1.2,2.7,1.9c1.9,1.4,3.9,2.9,5.9,4.3
		l1.6,1.1c0.5,0.3,0.9,0.7,1.4,1c1,0.7,1.8,1.5,2.6,2.2l1.1,1.1l0.9,1.2c0.4,0.8,0.8,1.6,0.8,2.3c0.1,0.8-0.1,1.5-0.4,2.1
		c-0.3,0.6-0.7,1.1-1,1.5l-0.9,0.8l-0.4,0.3 M194.81,144.51c0.4-0.1,0.7-0.2,1-0.4c0.3-0.1,0.6-0.4,0.9-0.6c0.3-0.2,0.5-0.6,0.7-0.9
		l0.2-0.6c0.1-0.2,0.1-0.4,0.1-0.6v-0.3l-0.1-0.3l-0.2-0.6c-0.2-0.3-0.3-0.7-0.6-1l-0.7-0.8c-0.2-0.3-0.5-0.5-0.8-0.8
		c-0.3-0.2-0.5-0.5-0.8-0.7l-0.9-0.6l-0.9-0.6l-0.9-0.5c-0.6-0.4-1.3-0.7-1.9-1l-1.9-0.9l0.7,2.1c0.3-0.4,0.5-0.7,0.7-1.1
		c0.3-0.4,0.5-0.8,0.6-1.2c0.4-0.8,0.7-1.6,1-2.5c0.2-0.8,0.4-1.8,0.5-2.7c0.1-1,0-2-0.4-3c-0.1-0.5-0.4-0.9-0.7-1.4
		c-0.3-0.4-0.6-0.8-1-1.1c-0.3-0.3-0.8-0.6-1.2-0.9l-0.6-0.3l-0.6-0.3c-0.4-0.2-0.8-0.3-1.3-0.4c-0.4-0.1-0.9-0.2-1.3-0.2
		c-0.4,0-0.9-0.1-1.3-0.1h-1.3l0.5,2l0.6-0.4l0.5-0.4l0.9-1c0.3-0.4,0.5-0.8,0.7-1.2c0.1-0.2,0.2-0.5,0.2-0.7
		c0.1-0.3,0.2-0.5,0.2-0.7v-0.8c-0.1-0.2-0.1-0.5-0.2-0.7l-0.3-0.6c-0.1-0.2-0.2-0.3-0.3-0.5c-0.1-0.2-0.3-0.3-0.4-0.5l-0.5-0.4
		l-1-0.6l0.8,1l0.3,0.5c0.1,0.1,0.2,0.3,0.3,0.5l0.2,0.5l0.1,0.5l-0.1,0.5c0,0.2-0.1,0.3-0.1,0.5c-0.1,0.2-0.2,0.3-0.2,0.4l-0.3,0.5
		c-0.2,0.3-0.4,0.6-0.7,0.8s-0.6,0.5-0.9,0.7l-0.4,0.3l-0.4,0.3c-0.5,0.3-0.7,0.9-0.5,1.4c0.2,0.4,0.5,0.6,0.8,0.6h0.1
		c0.4,0,0.8,0.1,1.2,0.2l1.1,0.3l1.1,0.4c0.4,0.1,0.7,0.2,1,0.4l0.5,0.2l0.4,0.3c0.3,0.2,0.6,0.4,0.7,0.6c0.2,0.2,0.4,0.5,0.6,0.7
		c0.1,0.2,0.2,0.5,0.3,0.8c0.3,1.1,0.2,2.5-0.1,3.9c-0.2,0.7-0.5,1.4-0.8,2.1c-0.1,0.4-0.3,0.7-0.4,1c-0.2,0.3-0.4,0.7-0.5,1
		l-0.1,0.1c-0.3,0.7-0.1,1.5,0.5,1.9l0.2,0.1l1.9,0.7c0.6,0.3,1.2,0.5,1.8,0.8l0.9,0.4c0.3,0.1,0.6,0.3,0.9,0.4l0.9,0.5l0.8,0.5
		c0.3,0.2,0.6,0.3,0.8,0.6l0.7,0.6l0.6,0.6l0.2,0.4l0.1,0.2l0.1,0.2c0,0.1,0.1,0.2,0.1,0.4v0.4c0,0.3-0.1,0.6-0.3,0.8l-0.3,0.4
		l-0.3,0.4c-0.2,0.2-0.5,0.5-0.8,0.7 M158.61,119.71l0.8-0.4l0.9-0.3l1.1-0.3c0.4-0.1,0.9-0.2,1.3-0.2c0.5-0.1,1-0.1,1.5-0.1
		c0.3,0,0.5,0,0.8-0.1h0.9c0.6,0,1.1,0.1,1.7,0.1c0.5,0,1.1,0.1,1.7,0.2c0.6,0.1,1.1,0.2,1.7,0.2c0.6,0.1,1.1,0.1,1.6,0.2l1.4,0.2
		c0.5,0,0.9,0.1,1.3,0.1l1,0.1h0.9l-0.6-0.6c-0.2-0.2-0.5-0.4-0.8-0.6c-0.3-0.2-0.7-0.5-1.1-0.7l-1.4-0.7c-0.5-0.3-1-0.5-1.6-0.7
		c-0.6-0.2-1.2-0.4-1.8-0.5l-1.9-0.3c-0.7,0-1.3-0.1-2,0c-0.7,0-1.3,0.1-1.9,0.3c-0.6,0.2-1.2,0.4-1.7,0.6c-0.5,0.3-1,0.5-1.4,0.8
		c-0.4,0.3-0.7,0.6-1,0.9s-0.5,0.6-0.7,0.8c-0.3,0.5-0.4,0.9-0.4,0.9 M164.21,106.41c-0.4-0.9-0.9-1.8-1.7-2.6
		c-0.8-0.801-1.6-1.4-2.7-1.6c-1.1-0.3-2.2-0.199-3.2,0.1c-0.5,0.1-1,0.3-1.5,0.6c-0.4,0.2-0.9,0.5-1.4,0.8l0.1-0.1
		c-0.3,0.1-0.8,0.1-1.1-0.1c-0.3-0.201-0.5-0.501-0.7-1c-0.2-0.4-0.2-0.8-0.3-1.4c-0.1-0.5-0.3-1.1-0.7-1.6c-0.7-1-1.9-1.5-3-1.7
		c-0.6-0.1-1.1-0.2-1.7-0.1c-0.5,0-1.1,0.1-1.7,0.3c-0.1,0-0.3,0.1-0.5,0.2l-0.3,0.2l-0.7,0.5c-0.4,0.4-0.8,0.699-1.1,1.099
		c-0.7,0.7-1.4,1.5-2.1,2.301c-0.6,0.8-1.3,1.6-1.9,2.5c-0.5,0.9-1.1,1.8-1.5,2.9c-0.1,0.5,0.1,1.1,0.6,1.2c0.1,0,0.1,0,0.1,0.1h0.1
		l9.8,2l2.4,0.5l1.3,0.2l0.6,0.1l0.2,0.1h0.6c1.2,0.1,2.3-0.3,3.1-0.7c0.8-0.5,1.3-0.7,2.1-1c1.5-0.5,3.1-0.9,4.6-1.2
		c1.6-0.199,3.2-0.5,4.5-0.3c1.5,0.3,3.1,0.7,4.6,1.2c1.5,0.599,3,1.2,4.4,1.9l1,0.6l0.5,0.3l0.6,0.4c0.9,0.5,2,0.9,3,0.9
		c1.1,0.1,2.2-0.2,3.1-0.699c1-0.5,1.7-1.2,2.4-1.9l0.4-0.601l0.2-0.3l0.1-0.1v0.1l0.1-0.1c0.3-0.4,0.4-0.5,0.6-0.7
		c0.5-0.6,1.1-1.1,1.7-1.5c1.27-0.899,2.6-1.699,4-2.399c0.7-0.4,1.5-0.601,2.2-1c0.7-0.3,1.5-0.6,2.3-0.8c1.5-0.5,3.1-0.9,4.6-1.2
		c1.5-0.3,3.1-0.5,4.7-0.601c1.6-0.1,3.3-0.1,4.9-0.1h-0.1c3.6,0.4,7.1,0.7,10.6,1l5.4,0.3h4.1c0.5,0,1,0,1.5-0.1h-0.2
		c1.2,0,2.3-0.1,3.5-0.2c1.1-0.1,2.2-0.3,3.401-0.5c2.199-0.4,4.4-1.1,6.5-2.099c2.1-1,4.1-2.401,5.6-4.2c0.4-0.4,0.7-0.801,1-1.1
		c0.401-0.4,0.801-0.6,1.1-0.699c0.2-0.1,0.2,0,0.3,0c0.1,0,0.2,0,0.3,0.199c0.201,0.3,0.401,0.7,0.5,1.2c0.2,1,0.3,2.1,0.3,3.1
		c0,1.099,0,2.199-0.2,3.199c-0.1,1-0.601,1.9-1.3,2.7c-0.6,0.8-1.5,1.5-2.4,2.1c-1.8,1.1-3.9,1.9-6,2.3s-4.4,0.601-6.6,0.5
		c2.199,0.3,4.5,0.3,6.699-0.1c2.2-0.3,4.4-1,6.401-2.1c1-0.5,2-1.2,2.8-2.1c0.8-0.8,1.5-1.93,1.8-3.1c0.28-1.23,0.3-2.301,0.4-3.5
		c0-1.2,0-2.301-0.2-3.5c-0.1-0.6-0.3-1.2-0.7-1.9c-0.2-0.3-0.5-0.6-1-0.8c-0.43-0.201-1-0.1-1.32,0c-0.8,0.3-1.3,0.7-1.7,1.1
		c-0.5,0.4-0.9,0.899-1.2,1.299c-1.4,1.5-3.2,2.7-5.1,3.5c-2,0.9-4,1.4-6.2,1.8c-1.1,0.2-2.2,0.3-3.2,0.4c-1.1,0.1-2.2,0.1-3.2,0.1
		h-3l-2.6-0.201c-1.8-0.1-3.5-0.3-5.3-0.4c-3.5-0.3-7.001-0.7-10.5-1.1h-0.1c-1.701-0.1-3.4-0.1-5.101,0c-1.8,0.1-3.5,0.3-5.1,0.601
		c-1.7,0.199-3.4,0.7-5.1,1.2c-0.8,0.2-1.6,0.5-2.45,0.8c-0.8,0.3-1.6,0.601-2.4,1c-1.6,0.7-3.1,1.6-4.5,2.6
		c-0.7,0.58-1.4,1.179-2.1,1.8c-0.3,0.4-0.7,0.801-0.9,1.18l-0.2,0.3l-0.1,0.2c-0.1,0.1-0.2,0.3-0.3,0.4c-0.8,1-2,1.7-3.1,1.7
		c-0.6,0-1.1-0.2-1.7-0.5l-0.5-0.3l-0.5-0.4l-1.2-0.7c-1.5-0.8-3.1-1.4-4.8-2c-1.6-0.5-3.3-1-5.1-1.2h-0.7l-0.6-0.1l-1.4,0.1
		c-0.9,0.1-1.73,0.2-2.6,0.4c-1.7,0.3-3.32,0.8-5,1.4l-1.3,0.5l-0.6,0.3l-0.5,0.3c-0.6,0.4-1.2,0.5-1.6,0.5h-0.62l-0.6-0.1
		l-1.2-0.199l-2.4-0.401l-9.8-1.7l0.78,1.3c0.1-0.4,0.3-0.8,0.5-1.3c0.2-0.4,0.44-0.8,0.7-1.2c0.5-0.8,1.1-1.6,1.7-2.4
		c0.6-0.8,1.2-1.5,1.9-2.3l1-1c0.2-0.201,0.35-0.3,0.5-0.401l0.3-0.2c0-0.03,0.1-0.1,0.2-0.1c0.74-0.35,1.7-0.5,2.6-0.4
		c0.9,0.1,1.7,0.5,2.25,1.1c0.3,0.4,0.4,0.699,0.6,1.2c0.1,0.5,0.3,1.069,0.5,1.57c0.3,0.5,0.6,1.059,1.2,1.37
		c0.6,0.3,1.3,0.3,1.9,0.1c0.4-0.3,0.8-0.6,1.3-0.8c0.4-0.2,0.9-0.4,1.3-0.6c1-0.3,2-0.5,3-0.3c1,0.199,1.9,0.699,2.7,1.4
		c0.8,0.699,1.4,1.55,1.9,2.5 M191.55,121.23c3.8-0.24,7.6-0.33,11.3-0.33c3.8,0,7.6,0.1,11.3,0.5c1.9,0.2,3.7,0.6,5.6,0.9
		c1.8,0.3,3.7,0.5,5.6,0.8c3.7,0.6,7.3,1.5,10.8,2.64c1.8,0.6,3.5,1.3,5.199,2c1.701,0.7,3.401,1.6,5,2.4c1.6,0.9,3.3,1.8,4.8,2.8
		c1.6,1,3.1,2,4.6,3.1c3,2.3,5.8,4.7,8.5,7.3c0.699,0.7,1.4,1.3,2,2c0.7,0.6,1.4,1.3,2,2c1.3,1.3,2.6,2.7,3.8,4.1l0.1,0.1
		c1.4,1.3,2.9,2.6,4.5,3.7c1.6,1.1,3.3,2.1,5,3c1.8,0.9,3.6,1.6,5.301,2.4c1.9,0.7,3.699,1.3,5.5,1.8c7.5,2.2,15.1,3.3,22.8,3.8
		c1.9,0.1,3.9,0.2,5.8,0.2c1.9,0.1,3.8,0.1,5.7,0.08c2.1-0.1,4.099-0.5,6-1.1c0.899-0.2,1.9-0.6,2.7-0.8c0.2,0,0.4-0.1,0.5-0.1h-0.1
		c-0.2-0.1-0.4-0.3-0.3-0.3v1.5c-0.1,0.47-0.1,0.7-0.201,1.1c-0.2,0.7-0.6,1.4-1,2c-1,1.2-2.4,2.1-4,2.7c-1.6,0.6-3.4,1-5.2,1.28
		c-1.8,0.2-3.7,0.3-5.4,0.2h-0.1c-0.8,0-1.5,0.6-1.6,1.5c0,0.3,0.1,0.5,0.2,0.7l0.1,0.3l-0.1-0.3c0.1,0.38,0.1,0.7,0.1,1
		c0,0.3,0,0.6-0.1,0.9c0,0.3-0.1,0.57-0.3,0.8c0,0.1-0.1,0.2-0.2,0.3l-0.1,0.1l-0.1,0.08l-0.201,0.2c-0.1,0-0.2,0.1-0.5,0.2
		c-0.3,0-0.6,0.1-1,0c-0.699,0-1.6-0.2-2.399-0.4c-1.6-0.4-3.3-1-4.9-1.6c-1.6-0.7-3.2-1.4-4.8-2.2c-1.6-0.8-3.1-1.6-4.7-2.5
		c-0.7-0.4-1.5-0.1-1.9,0.6c-0.3,0.5-0.2,1.1,0.1,1.5c0.3,0.4,0.5,0.9,0.7,1.24c0.2,0.4,0.2,0.8,0.1,1c0,0.2-0.2,0.4-0.5,0.6
		c-0.1,0.1-0.3,0.2-0.3,0.2h-0.6c-0.8,0-1.9-0.3-2.8-0.7c-1-0.5-2-1-2.9-1.7c-1.9-1.3-3.8-2.8-5.5-4.4c-0.9-0.8-1.701-1.6-2.6-2.5
		c-0.801-0.9-1.7-1.7-2.4-2.6c-0.5-0.5-1.3-0.6-1.8-0.1c-0.2,0.2-0.3,0.4-0.4,0.66l-0.7,3c-0.2,1-0.5,1.9-0.899,2.8
		c-0.4,0.9-0.9,1.6-1.4,2c-0.5,0.3-1,0.3-1.7,0s-1.4-1-2.1-1.6c-0.6-0.7-1.2-1.5-1.8-2.3c-0.6-0.8-1.1-1.7-1.6-2.6l-0.8-1.3
		l-0.801-1.4c-4.1-7.4-9.5-14-16-19.4c-3.2-2.7-6.7-5.1-10.5-7.04c-3.7-2-7.6-3.6-11.6-4.83c-4-1.23-8.1-2.14-12.2-2.7
		c-2.1-0.25-4.099-0.4-6.2-0.5c-2.1-0.1-4.2-0.1-6.3,0.1c2.1-0.1,4.17,0,6.2,0.17c2.1,0.2,4.2,0.4,6.199,0.8c4.1,0.6,8.2,1.7,12.1,3
		c7.8,2.7,15.1,6.9,21.3,12.3c6.2,5.37,11.3,12,15.1,19.2l0.7,1.4c0.3,0.5,0.5,1,0.8,1.4c0.56,1,1.1,1.9,1.7,2.8
		c0.66,0.9,1.3,1.76,2.08,2.6c0.8,0.8,1.6,1.6,2.77,2.2c0.6,0.3,1.26,0.5,2,0.5c0.8,0,1.6-0.3,2.199-0.7c1.2-0.85,1.8-2,2.301-3
		c0.4-1.05,0.77-2.15,1-3.2l0.8-3l-2.199,0.57l2.56,2.7c0.8,0.84,1.7,1.7,2.6,2.5c1.8,1.7,3.66,3.3,5.7,4.7c1,0.7,2.1,1.4,3.3,1.93
		c0.6,0.3,1.2,0.6,1.9,0.7c0.66,0.2,1.4,0.4,2.199,0.3h0.96l0.2-0.1c0.5-0.1,0.801-0.3,1.2-0.5c0.699-0.4,1.4-1.2,1.6-2.2
		c0.2-0.9,0.1-1.8-0.2-2.6c-0.2-0.7-0.6-1.3-1-1.9l-1.9,2.1c1.6,0.9,3.2,1.7,4.9,2.6c1.6,0.8,3.3,1.6,5,2.3
		c1.701,0.7,3.5,1.3,5.301,1.8c0.899,0.2,1.9,0.4,3,0.5c0.5,0,1.1,0,1.7-0.1c0.6-0.1,1.3-0.4,1.9-1l-0.2,0.2
		c0.2-0.1,0.3-0.2,0.4-0.3c0.2-0.1,0.3-0.2,0.4-0.4c0.2-0.2,0.4-0.4,0.5-0.7c0.3-0.5,0.5-1,0.6-1.6c0.2-0.5,0.2-1.1,0.2-1.6
		s-0.1-1-0.2-1.5l-0.1-0.3l-0.1-0.3l-1.4,2.1c2,0.1,3.9,0,5.9-0.3c1.9-0.3,3.9-0.7,5.8-1.5c1.9-0.8,3.8-1.9,5.199-3.7
		c0.7-0.9,1.24-2,1.54-3.1c0.2-0.5,0.3-1.2,0.3-1.7l0.1-0.7v-0.9c0-0.3-0.1-0.7-0.2-1.1l-0.1-0.4l-0.3-0.4c-0.2-0.2-0.5-0.5-0.8-0.6
		c-0.7-0.3-1.1-0.2-1.5-0.2l-0.9,0.2c-1.1,0.3-1.9,0.7-2.8,0.9c-1.7,0.6-3.4,0.9-5.1,1H320c-1.901,0-3.75-0.1-5.6-0.2
		c-7.5-0.4-15-1.4-22.14-3.4c-1.8-0.5-3.6-1.1-5.3-1.7c-1.75-0.7-3.5-1.3-5.1-2.2c-0.85-0.4-1.64-0.8-2.45-1.3
		c-0.7-0.5-1.5-0.9-2.3-1.4c-1.5-1-2.9-2.2-4.3-3.4h0.1c-1.3-1.4-2.6-2.8-4-4.2c-0.6-0.7-1.3-1.3-2-2c-0.699-0.7-1.4-1.3-2.1-2
		c-2.8-2.5-5.7-5-8.8-7.2c-1.6-1.1-3.1-2.2-4.8-3.2c-1.6-1-3.3-1.94-5-2.8c-1.7-0.8-3.4-1.7-5.2-2.4c-1.8-0.7-3.6-1.35-5.4-1.9
		c-3.699-1.1-7.4-1.9-11.199-2.35c-1.901-0.3-3.7-0.5-5.6-0.7c-1.8-0.2-3.7-0.6-5.6-0.7c-3.8-0.3-7.5-0.3-11.3-0.2
		c-3.8,0.2-7.5,0.4-11.3,0.8"/>
	<path fill="#231F20" d="M276.06,153.1c1.06,0.33,2.17,0.56,3.3,0.62c0.57,0.03,1.15,0,1.72-0.1c0.3-0.06,0.58-0.13,0.86-0.25
		c0.28-0.12,0.55-0.27,0.8-0.47c0.5-0.38,0.87-0.96,1.031-1.57c0.1-0.3,0.149-0.6,0.149-0.92c0.03-0.3,0-0.6-0.02-0.9
		c-0.1-1.2-0.5-2.3-0.92-3.3l-0.88,0.8c2.12,1.3,4.32,2.3,6.669,3c2.33,0.7,4.83,1.3,7.5,0.9c1.32-0.2,2.7-0.8,3.74-1.8
		c0.6-0.4,1-1,1.4-1.6c0.3-0.6,0.7-1.1,0.8-2.1c0.1-0.9-0.3-1.9-0.8-2.5c-0.5-0.6-1.1-1-1.7-1.4c-1.2-0.7-2.4-1.1-3.6-1.4
		c-2.4-0.7-4.8-1-7.2-1.4l-1.8-0.2l-0.9-0.1h-0.7l-1.7-0.3c-0.5-0.1-1-0.3-1.6-0.5c-1-0.2-2.101-0.7-3.2-1.1
		c-1.1-0.4-2.101-0.8-3.2-1.3c-1.1-0.4-2.101-0.9-3.201-1.4c-1-0.4-2.1-0.9-3.2-1.5c-2.1-1-4.2-2.1-6.3-3.2l-6.3-3.3l-3.1-1.6
		c-1-0.5-2.2-1-3.3-1.5c-2.2-1-4.5-1.8-6.7-2.7c-1.1-0.3-2.3-0.7-3.5-1l-1.7-0.5c-0.601-0.1-1.2-0.2-1.7-0.4l-3.5-0.7
		c-1.2-0.2-2.4-0.3-3.6-0.5c-2.3-0.4-4.8-0.4-7.2-0.5c-2.3,0-4.699,0.2-7.1,0.2l3.601,0.3c1.2,0.2,2.399,0.1,3.6,0.3
		c2.4,0.4,4.7,0.5,7,1.1l3.5,0.7l3.4,1l1.7,0.5l1.6,0.6l3.4,1.2c2.199,1,4.4,1.8,6.5,2.9l3.2,1.5l3.2,1.7c2.101,1.1,4.2,2.4,6.3,3.5
		c2.1,1.2,4.2,2.3,6.4,3.4c1.1,0.5,2.2,1,3.2,1.6c1.1,0.5,2.2,1.1,3.3,1.5c1.2,0.5,2.2,1,3.4,1.4c1.2,0.4,2.3,0.9,3.6,1.2
		c0.6,0.2,1.3,0.4,1.9,0.5l1.7,0.3h0.3l0.1,0.1l0.2,0.1h0.401l0.899,0.1l1.8,0.2c2.3,0.3,4.7,0.6,6.9,1.1c1.1,0.3,2.2,0.7,3.1,1.2
		c0.4,0.2,0.801,0.5,1.1,0.7c0.3,0.3,0.4,0.5,0.4,0.8c0,0.1-0.2,0.8-0.4,1.2c-0.2,0.4-0.5,0.8-0.8,1.1c-0.6,0.7-1.5,1.1-2.5,1.3
		c-2,0.4-4.4,0.1-6.601-0.4c-2.199-0.6-4.4-1.4-6.5-2.4c-0.3-0.1-0.7,0-0.801,0.3c-0.1,0.2-0.1,0.4,0,0.6c0.5,1,0.9,2,1.1,3
		c0,0.3,0.1,0.5,0.1,0.8c0,0.3-0.1,0.5-0.1,0.8c-0.1,0.5-0.3,0.9-0.699,1.3c-0.7,0.7-1.8,0.9-2.9,1c-1.1,0-2.2-0.1-3.3-0.3"/>
	<path fill="#231F20" d="M209.4,108.56c2.54-0.03,5.06,0.081,7.58,0.23c2.52,0.1,5.03,0.3,7.53,0.601c2.5,0.199,5,0.599,7.5,1
		c2.501,0.4,5,0.8,7.4,1.3c1.3,0.2,2.5,0.5,3.699,0.8c1.2,0.3,2.501,0.5,3.7,0.8c2.5,0.601,4.9,1.3,7.3,2c1.2,0.4,2.4,0.7,3.6,1.1
		l3.6,1.2c2.4,0.8,4.7,1.7,7.001,2.7h0.2c2,0.6,3.9,1.2,5.9,1.7c2,0.5,4,1,6.1,1.4c1.1,0.1,2.1,0.3,3.3,0.3c0.601,0,1.1-0.1,1.6-0.1
		l1.6-0.2l3-0.3c1-0.1,2-0.1,2.8,0c0.4,0,0.8,0.1,1.1,0.3c0.3,0.1,0.4,0.2,0.5,0.4c0.1,0.2,0.2,0.5,0.2,0.9v0.1l-0.1,0.3
		c0,0.1,0,0.2-0.1,0.3c-0.3,0.5-1,1-1.8,1.4c-0.8,0.4-1.7,0.6-2.7,0.8c-1.9,0.4-3.9,0.5-5.9,0.4c-1.9-0.1-4-0.3-5.8-0.8v-0.1
		c-0.2-0.1-0.5,0.1-0.6,0.4c0,0.1,0,0.3,0.1,0.4c0.1,0.1,0.2,0.3,0.3,0.5l0.2,0.5c0.201,0.3,0.201,0.7,0.3,1.1c0,0.7-0.2,1.4-0.8,2
		c-0.5,0.5-1.3,0.9-2.1,1.1c-0.801,0.2-1.6,0.3-2.4,0.4c0.8,0,1.7,0,2.5-0.2s1.7-0.5,2.4-1c0.4-0.3,0.7-0.7,0.9-1.1
		c0.2-0.4,0.3-0.9,0.3-1.4c0.1-0.5,0-1-0.1-1.4c0-0.2-0.1-0.4-0.2-0.7l-0.3-0.7l-0.6,0.8c2,0.8,4.1,1.1,6.1,1.4
		c2.101,0.2,4.2,0.2,6.3-0.1c1.1-0.2,2.1-0.4,3.2-0.8c1.1-0.4,2.2-1,3-2.2c0.2-0.3,0.4-0.7,0.5-1l0.1-0.4l0.1-0.1v-0.3
		c0.1-0.6,0.1-1.3-0.3-2.1c-0.3-0.7-1-1.3-1.6-1.6c-0.601-0.3-1.2-0.5-1.8-0.5c-1.2-0.2-2.2-0.1-3.3-0.1l-3.1,0.2l-1.5,0.1h-1.4
		c-0.801-0.1-1.8-0.2-2.7-0.4c-3.8-0.8-7.7-1.9-11.6-3.2l0.2,0.1l-7.099-2.7l-3.601-1.2c-1.2-0.4-2.399-0.7-3.6-1.1
		c-2.5-0.6-4.9-1.299-7.4-1.8c-2.5-0.5-5-0.999-7.5-1.4c-2.5-0.4-5.1-0.699-7.6-1c-2.5-0.2-5.1-0.4-7.6-0.5c-2.6-0.1-5.1-0.1-7.7,0
		c-2.5,0.1-5.101,0.3-7.6,0.6 M127,174.4c0.5,0.55,1.1,1,1.8,1.37c0.7,0.3,1.4,0.6,2.3,0.7h0.7c0.2,0,0.4-0.1,0.7-0.2l0.7-0.4
		c0.2-0.2,0.4-0.3,0.6-0.5c0.1-0.2,0.3-0.4,0.4-0.6l0.37-0.7c0.2-0.4,0.3-0.8,0.43-1.2l0.3-1l0.3-0.9c0.1-0.3,0.2-0.6,0.34-0.8
		c0.1-0.3,0.27-0.5,0.4-0.7c0.3-0.4,0.67-0.7,1.37-1.3c0.3-0.3,0.7-0.7,1-1.2l0.3-0.8c0.1-0.3,0.1-0.5,0.2-0.7v-0.9
		c0-0.2-0.1-0.5-0.2-0.7c0-0.2-0.2-0.5-0.3-0.7s-0.3-0.4-0.5-0.6c-0.2-0.1-0.4-0.3-0.6-0.4s-0.4-0.2-0.6-0.2c-0.4-0.1-0.7-0.2-1-0.2
		c-0.7-0.04-1.2,0-1.8,0c-0.5,0.08-1.1,0.1-1.6,0.2c-1.1,0.2-2.1,0.4-3.2,0.7c-1,0.3-2,0.6-3.1,0.98c1.1,0.14,2.2,0.23,3.2,0.3
		c0.6,0.05,1.1,0.1,1.6,0.1l1.6,0.1c0.6,0,1.1,0.03,1.6,0.1c0.5,0,1,0.05,1.4,0.15c0.2,0,0.3,0.1,0.5,0.1l0.1,0.1l0.1,0.1v0.3
		l0.1-0.3l-0.1,0.3c-0.1,0.1-0.1,0.2-0.1,0.3c-0.1,0.14-0.2,0.25-0.4,0.43c-0.3,0.4-1.2,1-1.7,1.8l-0.6,1.2
		c-0.2,0.4-0.3,0.8-0.4,1.2c-0.1,0.4-0.2,0.8-0.2,1.2l-0.1,1.1c0,0.3,0,0.6-0.1,0.8l-0.1,0.4l-0.1,0.3c0,0.1-0.1,0.12-0.2,0.2
		c0,0.1-0.1,0.13-0.2,0.2c-0.1,0.1-0.2,0.1-0.3,0.2c-0.1,0-0.3,0.1-0.4,0.1l-0.9,0.1l-1-0.1c-0.7-0.1-1.4-0.3-2.1-0.5
		 M198.91,133.63c1.7,0,3.4,0.1,5.1,0.2c1.7,0.18,3.3,0.37,5,0.6c1.6,0.3,3.3,0.66,4.9,1.06c1.6,0.4,3.201,0.9,4.701,1.4
		c3.1,1.1,6.1,2.5,8.8,4.4c2.6,1.9,4.9,4.2,6,7c0.6,1.4,0.8,2.9,0.699,4.3l-0.2,1.1l-0.2,1.1l-0.4,1.1l-0.4,1.2
		c-0.1,0.4-0.2,0.9-0.4,1.4c-0.1,0.5-0.2,0.9-0.2,1.4c-0.1,1-0.1,2,0.2,3.1c0.2,0.5,0.5,1.1,1,1.6c0.5,0.5,1.1,0.8,1.8,1
		c1.3,0.3,2.5-0.1,3.4-0.6l0.2-0.1l0.1-0.1h0.1l0.1-0.1l0.3-0.2l0.3-0.2l0.3-0.3c0.2-0.2,0.401-0.3,0.601-0.5l0.5-0.6
		c0.3-0.4,0.6-0.8,0.9-1.1c0.2-0.4,0.5-0.8,0.7-1.2c0.8-1.7,1.3-3.5,1.3-5.4c0.1-1.9-0.3-3.7-1.001-5.4c-0.699-1.7-1.8-3.1-2.9-4.4
		l-0.6,1c0.4,0,0.8,0.1,1.2,0.1h1.2c0.8-0.1,1.7-0.2,2.399-0.5c0.4-0.2,0.801-0.5,1.1-0.8l0.3-0.6l0.1-0.7c0-0.4-0.1-0.8-0.3-1.2
		c-0.2-0.3-0.3-0.7-0.5-1c0.2,0.4,0.3,0.8,0.4,1.1c0.1,0.4,0.1,0.8,0.1,1.1c0,0.2-0.1,0.4-0.1,0.5c-0.1,0.2-0.2,0.3-0.3,0.4
		c-0.3,0.3-0.601,0.4-0.9,0.5c-0.7,0.2-1.4,0.2-2.2,0.2c-0.3,0-0.7,0-1.1-0.1l-1.1-0.2c-0.3-0.1-0.6,0.1-0.699,0.5
		c0,0.2,0,0.4,0.1,0.5l0.1,0.1c1,1.4,1.8,2.8,2.3,4.3s0.6,3.1,0.5,4.6c-0.1,1.5-0.601,3-1.3,4.4c-0.4,0.7-0.801,1.3-1.3,1.8
		l-0.4,0.4l-0.401,0.3l-0.2,0.2l-0.2,0.1l-0.3,0.1h-0.1h0.1h-0.1c-0.6,0.2-1.2,0.3-1.5,0.2c-0.3-0.1-0.5-0.3-0.699-0.8
		c-0.201-1.1,0.1-2.7,0.6-4.1l0.4-1.2l0.5-1.3l0.3-1.4l0.2-1.4c0.2-1.9-0.2-3.9-0.9-5.6c-0.699-1.8-1.8-3.3-3-4.7
		c-1.2-1.3-2.7-2.5-4.099-3.4c-1.5-1-3.1-1.8-4.7-2.6c-1.6-0.7-3.3-1.3-4.901-1.8c-1.699-0.5-3.4-0.9-5.1-1.2
		c-1.7-0.3-3.4-0.5-5.199-0.6c-1.701-0.1-3.4-0.1-5.1,0c-1.7,0-3.4,0.3-5.1,0.5 M102.91,70.09h-0.1L97,57.5
		c0.03-0.199,0.13-0.3,0.3-0.4h8.87c0.14,0.1,0.24,0.201,0.3,0.371L102.91,70.09z M122.91,40.89c-2.1,0.1-4.8,0.201-6.9,0.201
		c-2.1,0-4.8-0.1-7-0.201c-0.1,0.201-0.2,0.4-0.2,0.8c0,0.401,0.1,0.601,0.5,0.7l1.4,0.201c1.1,0.199,1.5,0.5,1.5,1.2
		c0,0.8-0.9,3-1.4,4.4l-1.8,4.699c-0.1,0.1-0.2,0.201-0.4,0.3H96c-0.2-0.1-0.25-0.2-0.35-0.3l-1.6-4.8c-0.8-2.4-1.26-5.2,1.16-5.6
		l1.5-0.3c0.3,0,0.4-0.3,0.4-0.7s-0.1-0.601-0.1-0.8c-2.3,0-3.6,0.199-5.6,0.199c-1.9,0-3.2-0.199-5.4-0.199
		c0,0.199-0.1,0.4-0.1,0.8s0.1,0.6,0.4,0.7l1,0.199c1.4,0.4,2.3,1.4,3.7,5.6l7.6,23c0.3,0.699,0.5,1.4,0.5,1.8v0.601
		c0.3,0.8,1.2,0.899,2.9,2c1.5,1,1.8,1.701,2.6,1.701c0.3,0,0.4,0,0.6-0.201c0.5-1.8,1.2-3.6,2.7-7.299l8.3-21
		c1.7-4.2,2.3-5.301,3.8-5.6l1.1-0.3c0.3-0.1,0.5-0.3,0.5-0.7s-0.1-0.6-0.2-0.899 M137.41,40.29c-3.4,0-6.3,0.5-8.7,1.8
		c-0.1,0.1-0.3,0.2-0.4,0.4c-0.1,1.8-0.4,5.4-0.8,7.4c0.2,0,0.6,0.1,1,0.1c0.5,0,0.7-0.1,0.8-0.5c1.1-4.5,3.7-7.2,8.5-7.2
		c3.8,0,6.7,2.1,6.7,5.9c0,9-14.9,7.2-14.9,18.599c0,5.501,4,9.9,11.6,9.9c2.7,0,5.2-0.3,6.9-0.9c0.2-0.1,0.3-0.199,0.4-0.4
		c0.1-1.8,0.4-4.2,0.6-6.2c-0.2-0.059-0.4-0.16-0.8-0.16s-0.7,0-0.8,0.4c-1,3.6-3.3,5.199-6.6,5.199c-3.5,0-5.8-2.199-5.8-5.399
		c0-7.8,15.6-7.5,15.6-18.2c-0.1-7.1-6.5-11.1-13.1-11.1 M197.41,40.63c-2.2,0-4.7,0.1-6.8,0.1c-2.1,0-4.7-0.1-6.9-0.1
		c-0.1,0.199-0.1,0.5-0.1,0.8c0,0.4,0.1,0.6,0.4,0.7l1.9,0.3c1.4,0.2,1.4,1.2,1.4,5.2v10c0,0.2-0.1,0.3-0.3,0.4h-17.1
		c-0.1-0.1-0.2-0.2-0.3-0.4v-9c0-4,0.1-5.1,1.5-5.3l1.9-0.3c0.4-0.1,0.5-0.3,0.5-0.7s-0.1-0.699-0.2-0.899c-2.2,0-4.6,0.1-6.7,0.1
		c-2.1,0-4.7-0.1-6.9-0.2c0,0.2-0.1,0.571-0.1,0.9c0,0.4,0.1,0.6,0.5,0.7l1.9,0.3c1.3,0.2,1.4,1.2,1.4,5.2v21c0,4-0.1,5-1.4,5.199
		l-1.8,0.3c-0.4,0.06-0.5,0.3-0.5,0.7s0,0.64,0.1,0.85c2.2-0.05,4.6-0.149,6.7-0.149c2.1,0,4.7,0.1,6.9,0.18
		c0.1-0.201,0.2-0.45,0.2-0.801c0-0.4-0.1-0.65-0.5-0.699l-1.8-0.3c-1.3-0.2-1.4-1.2-1.4-5.2V62c0.1-0.199,0.2-0.3,0.3-0.4h17
		c0.2,0.1,0.3,0.201,0.3,0.35v8c0,4,0,5.04-1.4,5.25l-1.9,0.3c-0.3,0.081-0.4,0.3-0.4,0.7s0.1,0.66,0.1,0.87
		c2.2-0.08,4.7-0.18,6.8-0.18c2.1,0,4.7,0.1,6.9,0.1c0-0.2,0.1-0.401,0.1-0.801s-0.1-0.599-0.5-0.699l-1.9-0.3
		c-1.4-0.2-1.5-1.099-1.5-5.199V49c0-4,0.1-5,1.4-5.199l1.9-0.3c0.4,0,0.5-0.2,0.5-0.601c0-0.3-0.1-0.599-0.1-0.8 M234.71,69.6
		c-0.401,0-0.601,0.2-0.7,0.5l-0.4,1.5c-0.7,2.6-1.8,3-6.4,3h-3c-0.3-0.5-0.5-1.5-0.5-5V49.3c0-4,0-5.03,1.4-5.24l1.901-0.3
		c0.3-0.06,0.5-0.26,0.5-0.68c0-0.35-0.1-0.659-0.1-0.87c-2.2,0.1-4.6,0.201-6.7,0.201c-2.1,0-4.7-0.1-6.9-0.201
		c0,0.201-0.1,0.5-0.1,0.901c0,0.4,0.1,0.599,0.4,0.699l1.9,0.3c1.4,0.201,1.4,1.301,1.4,5.301v20.4c0,3.6-0.201,4.5-0.501,5h-3
		c-4.8,0-5.9-0.4-6.599-2.9l-0.4-1.4c-0.1-0.3-0.3-0.5-0.701-0.5c-0.4,0-0.8,0.1-1,0.1c0.1,1.901,0.5,6.6,0.5,8.301
		c0.2,0.1,0.2,0.1,0.6,0.1c0.3,0,0.601,0,0.7-0.3c0.1-0.4,0.3-0.699,0.6-0.8c0.631,0,3.4-0.1,6.2-0.1H227c2.8,0,5.63,0.1,6.3,0.199
		c0.3,0.1,0.461,0.401,0.56,0.901c0.07,0.3,0.38,0.3,0.7,0.3h0.56c0-1.7,0.1-6.3,0.24-8.3c-0.2,0-0.56-0.1-0.97-0.1 M252.59,71.81
		h-0.1L248.1,58c0-0.119,0.1-0.22,0.3-0.32h8.9c0.1,0.1,0.2,0.201,0.3,0.4L252.59,71.81z M272.69,42.81c-2.2,0.1-4.8,0.2-6.9,0.2
		s-4.9-0.1-7.1-0.2c0,0.2-0.1,0.5-0.1,0.8c0,0.4,0,0.7,0.4,0.7l1.4,0.3c1.1,0.199,1.4,0.5,1.4,1.2c0,0.8-0.9,3-1.4,4.4l-1.8,4.8
		c-0.1,0.2-0.2,0.3-0.4,0.3h-11c-0.2,0-0.3-0.1-0.4-0.3l-1.6-4.8c-0.8-2.4-1.3-5.199,1.1-5.599l1.4-0.201c0.3,0,0.4-0.3,0.4-0.7
		c0-0.3-0.1-0.599-0.1-0.8c-2.3,0-3.6,0.201-5.6,0.201c-1.9,0-3.2-0.1-5.3-0.1c0,0.2-0.1,0.5-0.1,0.8c0,0.4,0.1,0.6,0.4,0.7l1,0.3
		c1.4,0.4,2.3,1.5,3.7,5.7l7.7,22.099c0.2,0.7,0.4,1.4,0.4,1.8c0,0.2,0,0.4-0.1,0.601c0.3,0.8,1.2,0.899,2.9,2
		c1.5,1,1.8,1.7,2.6,1.7c0.2,0,0.4,0,0.5-0.2c0.5-1.8,1.2-3.6,2.7-7.3l8.3-21.1c1.7-4.2,2.3-5.3,3.8-5.599l1.1-0.2
		c0.4-0.1,0.5-0.3,0.5-0.7c0-0.3-0.1-0.6-0.1-0.8 M292.5,76c-0.8,0-1.6-0.1-2.3-0.3c-0.3-0.4-0.5-1.701-0.5-4.9V61
		c0.1-0.15,0.2-0.2,0.3-0.3h3.1c4.1,0,7,2.459,7,7.1c0,5.3-3.401,7.8-7.4,7.8 M314,42.4c-0.9,0.021-3.5,0.13-4.6,0.13
		c-1.8,0-3.7-0.1-4.9-0.201c-3.4,3.4-7.2,9.8-10.7,15.88c-0.12,0.2-0.2,0.3-0.33,0.3H290c-0.15-0.1-0.25-0.201-0.3-0.3v-8.8
		c0-4,0.1-5,1.44-5.2l1.85-0.3c0.3,0,0.4-0.201,0.4-0.601c0-0.4-0.1-0.7-0.2-0.899c-2.3,0-4.7,0.1-6.8,0.1s-4.7-0.1-7-0.1
		c-0.1,0.199-0.1,0.6-0.1,0.899c0,0.5,0.1,0.7,0.4,0.7l1.8,0.3c1.3,0.3,1.4,1.299,1.4,5.3v20.9c0,4-0.1,5.099-1.4,5.3l-1.9,0.3
		c-0.401,0.1-0.5,0.3-0.5,0.7s0,0.7,0.1,0.9c2.2,0,3.9-0.1,6-0.1c3,0,6.9,0.401,9.201,0.401c7.099,0,11.9-3.201,11.9-9.1
		c0-4.1-3-7-6.8-8.4c-0.1-0.2-0.1-0.3-0.1-0.5c1.4-2.5,4.4-6.801,6.9-10.001c3-3.899,4.3-5.3,5.9-5.6l0.801-0.1
		c0.3,0,0.4-0.3,0.4-0.7s-0.1-0.6-0.1-0.8 M334.09,42.81c-2.2,0-4.6,0.2-6.7,0.2s-4.8-0.1-7-0.2c-0.1,0.2-0.1,0.5-0.1,0.899
		c0,0.401,0.1,0.601,0.401,0.7l1.8,0.3c1.3,0.2,1.4,1.2,1.4,5.2v20.9c0,4-0.1,5.1-1.4,5.3l-1.8,0.3c-0.401,0-0.5,0.2-0.5,0.6
		s0,0.7,0.1,0.9c2.2,0,4.6-0.1,6.7-0.1s4.7,0.1,6.9,0.201c0.1-0.201,0.2-0.5,0.2-0.901c0-0.4-0.1-0.599-0.4-0.599l-1.9-0.3
		c-1.4-0.2-1.5-1.2-1.5-5.2V50c0-4,0.1-5,1.4-5.23l2-0.42c0.3-0.05,0.4-0.25,0.4-0.7c0-0.3-0.1-0.63-0.1-0.839"/>
</g>
</svg>
