<?xml version="1.0" standalone="no"?>
<!DOCTYPE svg PUBLIC "-//W3C//DTD SVG 20010904//EN"
 "http://www.w3.org/TR/2001/REC-SVG-20010904/DTD/svg10.dtd">
<svg version="1.0" xmlns="http://www.w3.org/2000/svg"
 width="800.000000pt" height="800.000000pt" viewBox="0 0 800.000000 800.000000"
 preserveAspectRatio="xMidYMid meet">
<metadata>
Created by potrace 1.11, written by Peter Selinger 2001-2013
</metadata>
<g transform="translate(0.000000,800.000000) scale(0.100000,-0.100000)"
fill="#000000" stroke="none">
<path d="M4114 7239 c-2 -5 -12 -5 -21 -2 -10 4 -21 -1 -30 -13 -8 -10 -16
-18 -19 -16 -9 5 -60 -27 -99 -63 -22 -21 -56 -49 -75 -64 -19 -14 -42 -33
-50 -41 -30 -28 -65 -56 -70 -56 -3 0 -33 -19 -67 -42 -34 -23 -67 -42 -72
-42 -6 0 -11 -3 -11 -7 0 -5 -19 -17 -43 -28 -23 -11 -44 -22 -47 -25 -3 -3
-43 -26 -90 -50 -161 -83 -233 -140 -245 -193 -2 -12 -6 -60 -8 -107 -6 -112
-5 -110 -100 -375 -14 -38 -27 -79 -29 -90 -1 -11 -5 -22 -8 -25 -7 -7 -163
-481 -164 -500 -1 -8 -4 -17 -7 -20 -7 -5 -53 -148 -54 -165 0 -5 -3 -12 -7
-15 -4 -3 -9 -17 -10 -30 -2 -14 -6 -27 -9 -30 -5 -5 -53 -147 -55 -165 0 -5
-6 -21 -11 -35 -14 -33 -74 -210 -78 -230 -2 -8 -12 -40 -23 -70 -33 -89 -134
-404 -136 -420 0 -8 -4 -17 -7 -20 -6 -6 -144 -421 -144 -435 0 -5 -2 -12 -5
-15 -6 -5 -203 -601 -202 -610 0 -3 -4 -13 -10 -23 -9 -18 -18 -47 -22 -77 -1
-8 -7 -24 -13 -35 -6 -11 -12 -24 -13 -30 -3 -12 3 6 -75 -230 -37 -110 -67
-204 -69 -210 -1 -5 -4 -14 -7 -20 -3 -5 -12 -32 -19 -60 -7 -27 -16 -54 -20
-60 -4 -5 -11 -23 -15 -40 -5 -16 -9 -34 -11 -40 -1 -5 -25 -76 -53 -158 -27
-81 -51 -151 -52 -155 -1 -4 -5 -18 -10 -30 -5 -13 -7 -28 -3 -33 3 -5 1 -9
-4 -9 -6 0 -37 -77 -48 -122 -1 -5 -3 -10 -4 -13 -1 -3 -3 -8 -4 -12 -2 -5 -7
-19 -14 -33 -26 -59 -67 -176 -66 -188 1 -6 -2 -12 -6 -12 -5 0 -12 -10 -16
-22 -3 -13 -32 -75 -64 -139 -57 -116 -126 -221 -175 -269 -14 -14 -22 -29
-18 -34 4 -4 1 -6 -7 -4 -8 2 -14 -3 -12 -10 1 -8 -2 -11 -8 -7 -5 3 -10 1
-10 -4 0 -6 -4 -11 -10 -11 -9 0 -72 -39 -97 -60 -7 -6 -13 -8 -13 -5 0 3 -9
1 -19 -5 -24 -12 -126 -40 -166 -44 -64 -7 -115 -27 -131 -51 -26 -40 -19
-224 9 -226 64 -5 320 4 507 17 162 11 216 13 445 13 227 0 289 -2 455 -13
255 -17 530 -24 537 -14 17 29 25 169 11 210 -6 16 -20 34 -32 38 -22 10 -191
47 -254 56 -55 8 -163 43 -198 64 -41 26 -97 88 -115 128 -7 17 -18 32 -22 32
-5 0 -6 4 -2 10 3 5 -1 24 -8 42 -24 57 -19 272 10 408 31 151 29 143 36 160
3 8 11 33 16 55 6 22 46 148 90 279 44 132 78 243 75 247 -2 4 0 9 4 11 7 2
87 230 97 273 1 6 7 23 13 38 7 16 12 34 12 41 0 7 3 16 7 20 4 3 8 17 10 29
2 12 17 36 33 52 l30 30 1137 1 1136 1 32 -28 c20 -18 42 -54 59 -101 16 -40
42 -109 59 -153 17 -44 34 -84 39 -90 4 -5 8 -19 8 -32 0 -13 5 -23 12 -23 6
0 9 -3 5 -6 -3 -3 3 -29 15 -58 84 -210 267 -703 328 -886 102 -304 100 -390
-13 -463 -40 -26 -171 -57 -307 -72 -44 -6 -80 -12 -90 -15 -3 -1 -8 -2 -13
-1 -19 3 -77 -29 -91 -51 -18 -28 -16 -140 5 -186 13 -30 14 -30 78 -26 81 4
272 12 501 21 229 8 1144 8 1330 0 80 -3 179 -7 220 -8 l75 -3 24 48 c44 88
34 202 -20 237 -19 13 -220 72 -280 83 -8 1 -31 10 -53 19 -21 9 -40 17 -42
17 -2 0 -15 9 -28 21 -13 12 -28 22 -33 22 -4 1 -23 19 -41 42 -19 22 -39 45
-45 50 -26 22 -217 373 -217 399 0 3 -11 29 -24 58 -13 29 -45 105 -70 168
-26 63 -50 124 -55 135 -5 11 -9 23 -9 28 -1 4 -9 22 -19 40 -9 17 -18 34 -18
37 -3 21 -30 88 -39 99 -6 7 -11 19 -11 25 0 20 -50 136 -58 136 -5 0 -6 4 -3
9 5 8 -3 33 -39 116 -7 17 -32 80 -56 140 -23 61 -46 112 -51 113 -4 2 -6 7
-3 12 3 4 -4 27 -14 51 -18 43 -32 79 -36 89 -1 3 -7 19 -14 35 -6 17 -21 55
-33 85 -12 30 -24 57 -27 60 -3 3 -6 10 -6 15 -1 20 -29 85 -38 85 -4 0 -6 4
-3 9 3 5 -3 28 -13 52 -17 42 -32 78 -36 89 -1 3 -5 14 -10 25 -4 11 -21 54
-38 95 -16 41 -34 86 -40 100 -5 14 -11 30 -13 35 -1 6 -16 44 -34 85 -17 41
-33 82 -35 90 -1 8 -10 31 -18 50 -8 19 -22 51 -31 72 -9 20 -16 43 -16 51 0
9 -4 18 -9 21 -5 3 -16 27 -24 53 -9 27 -24 66 -33 88 -10 22 -17 43 -16 48 1
4 -2 7 -6 7 -5 0 -9 6 -9 13 0 6 -7 28 -15 47 -9 19 -71 175 -137 345 -67 171
-126 318 -131 327 -6 10 -10 25 -10 33 0 8 -4 15 -8 15 -5 0 -9 6 -9 13 0 11
-174 459 -221 567 -8 19 -16 40 -17 46 -2 5 -21 57 -44 115 -42 104 -45 113
-75 181 -9 20 -16 39 -16 43 0 4 -7 23 -16 43 -9 21 -20 46 -25 57 -108 249
-379 983 -379 1027 0 4 -5 19 -12 35 -6 15 -10 32 -9 37 2 10 -38 46 -53 47
-51 5 -88 4 -92 -2z m-259 -1266 c5 -16 9 -33 10 -39 4 -15 85 -304 96 -339 5
-16 36 -127 69 -245 33 -118 64 -228 70 -245 5 -16 20 -70 34 -120 38 -140
112 -401 141 -500 15 -49 28 -97 30 -106 2 -9 13 -49 24 -90 12 -41 28 -96 36
-124 21 -77 55 -195 70 -245 7 -25 21 -77 31 -116 l18 -71 -28 -26 -27 -25
-794 -1 -794 0 -25 26 c-14 14 -26 31 -26 37 0 10 255 569 375 823 25 52 45
96 45 98 0 2 22 50 49 107 27 57 60 128 74 158 55 121 272 591 313 679 24 51
44 99 44 105 0 7 5 17 11 23 10 10 30 53 102 216 24 53 41 60 52 20z"/>
</g>
</svg>
